<svg width="24" height="25" viewBox="0 0 24 25" fill="none" xmlns="http://www.w3.org/2000/svg">
<path class='residue' d="M24 12.5C24 19.1274 18.6274 24.5 12 24.5C5.37258 24.5 0 19.1274 0 12.5C0 5.87258 5.37258 0.5 12 0.5C18.6274 0.5 24 5.87258 24 12.5ZM2.4 12.5C2.4 17.8019 6.69807 22.1 12 22.1C17.3019 22.1 21.6 17.8019 21.6 12.5C21.6 7.19807 17.3019 2.9 12 2.9C6.69807 2.9 2.4 7.19807 2.4 12.5Z" fill="#C4C4C4"/>
<path class='progres' d="M12 0.5C15.15 0.5 18.1736 1.73855 20.4184 3.94834C22.6632 6.15813 23.949 9.16195 23.9985 12.3115C24.048 15.4611 22.8571 18.5038 20.6828 20.783C18.5086 23.0622 15.5253 24.3951 12.3769 24.4941C9.22853 24.593 6.16747 23.4501 3.85439 21.3119C1.54131 19.1737 0.161703 16.2117 0.0133212 13.0653C-0.13506 9.91882 0.959681 6.84018 3.06128 4.4938C5.16287 2.14742 8.10279 0.721464 11.2465 0.523679L11.3972 2.91894C8.88223 3.07717 6.5303 4.21794 4.84902 6.09504C3.16774 7.97214 2.29195 10.4351 2.41066 12.9522C2.52936 15.4694 3.63305 17.8389 5.48351 19.5495C7.33397 21.26 9.78282 22.1744 12.3015 22.0953C14.8203 22.0161 17.2069 20.9498 18.9463 19.1264C20.6857 17.303 21.6384 14.8689 21.5988 12.3492C21.5592 9.82956 20.5305 7.4265 18.7347 5.65867C16.9389 3.89084 14.52 2.9 12 2.9V0.5Z" fill="#E82127"/>
</svg>
