<svg xmlns="http://www.w3.org/2000/svg" width="16" height="17" viewBox="0 0 16 17" fill="none">
<path d="M7.19302 3.86931C6.95479 4.11367 6.97862 4.48023 7.19302 4.72459L10.0756 7.51039H3.23843C2.90492 7.51039 2.66669 7.7792 2.66669 8.09687V8.87885C2.66669 9.22097 2.90492 9.46533 3.23843 9.46533H10.0756L7.19302 12.2756C6.97862 12.5199 6.97862 12.8865 7.19302 13.1309L7.71712 13.6685C7.95535 13.8884 8.31269 13.8884 8.5271 13.6685L13.1725 8.90329C13.387 8.68336 13.387 8.31681 13.1725 8.07244L8.5271 3.3317C8.31269 3.11177 7.95535 3.11177 7.71712 3.3317L7.19302 3.86931Z" fill="none"/>
</svg>