<svg width="152" height="19" fill="none" xmlns="http://www.w3.org/2000/svg"><path d="M129.858 7.52v11.458h3.833v-7.629h13.949v7.629h3.83V7.54l-21.612-.02zM133.263 3.815h14.738c2.047-.39 3.57-2.122 3.999-3.797h-22.735c.425 1.675 1.97 3.407 3.998 3.797zM118.25 18.985c1.932-.785 2.972-2.144 3.37-3.733h-17.191L104.44.025l-3.854.01v18.949h17.664zM71.93 3.763h13.61c2.053-.572 3.776-2.07 4.196-3.732H68.115V11.23H85.81v3.93l-13.881.01c-2.175.581-4.02 1.982-4.94 3.831l1.125-.02h21.498V7.506H71.93V3.763zM38 3.799h14.733c2.05-.392 3.574-2.122 4-3.799H34c.424 1.677 1.97 3.407 4 3.799zM38.329 11.288h14.733c2.05-.388 3.573-2.12 4-3.798H34.33c.424 1.679 1.97 3.41 4 3.798zM38.329 18.983h14.733c2.05-.39 3.573-2.122 4-3.798H34.33c.424 1.676 1.97 3.407 4 3.798zM0 .046C.443 1.702 1.939 3.395 3.99 3.82h6.202l.316.12V18.94h3.873V3.938l.352-.12h6.207c2.075-.512 3.538-2.116 3.974-3.772V.01H0v.036z"/></svg>