<svg width="152" height="19" viewBox="0 0 152 19" fill="none" xmlns="http://www.w3.org/2000/svg">
<path d="M129.858 7.52026V18.9777H133.691V11.3493H147.64V18.9777H151.47V7.54013L129.858 7.52026Z" fill="#E82127"/>
<path d="M133.263 3.81475H148.001C150.048 3.42468 151.571 1.6929 152 0.0175781H129.265C129.69 1.69342 131.235 3.42468 133.263 3.81475Z" fill="#E82127"/>
<path d="M118.25 18.9848C120.182 18.1995 121.222 16.841 121.62 15.2515H104.429L104.44 0.026123L100.586 0.036575V18.9848H118.25Z" fill="#E82127"/>
<path d="M71.9299 3.76278H85.5409C87.5929 3.19127 89.3159 1.6927 89.7359 0.0314941H68.1145V11.229H85.8109V15.1585L71.9299 15.169C69.7547 15.7504 67.91 17.1507 66.9898 19.0001L68.1145 18.9803H89.6132V7.50611H71.9299V3.76278Z" fill="#E82127"/>
<path d="M38.0003 3.79874H52.7333C54.7831 3.4071 56.3065 1.67689 56.7336 0H34C34.4244 1.67689 35.9701 3.4071 38.0003 3.79874Z" fill="#E82127"/>
<path d="M38.3289 11.2877H53.0619C55.1117 10.9002 56.6351 9.16841 57.0622 7.49048H34.3286C34.753 9.16893 36.2987 10.9002 38.3289 11.2877Z" fill="#E82127"/>
<path d="M38.3289 18.9828H53.0619C55.1117 18.5922 56.6351 16.8609 57.0622 15.1851H34.3286C34.753 16.8614 36.2987 18.5922 38.3289 18.9828Z" fill="#E82127"/>
<path d="M0 0.0461272C0.442901 1.7021 1.93851 3.39467 3.99047 3.81873H10.1922L10.5085 3.93847V18.9405H14.3812V3.93847L14.733 3.81873H20.9401C23.015 3.3063 24.4784 1.7021 24.9137 0.0461272V0.00952148H0V0.0461272Z" fill="#E82127"/>
</svg>
